<mxfile host="app.diagrams.net" agent="Mozilla/5.0 (Windows NT 10.0; Win64; x64) AppleWebKit/537.36 (KHTML, like Gecko) Chrome/108.0.0.0 Safari/537.36" version="26.0.6">
  <diagram name="Page-1" id="90a13364-a465-7bf4-72fc-28e22215d7a0">
    <mxGraphModel dx="1434" dy="739" grid="1" gridSize="10" guides="1" tooltips="1" connect="1" arrows="1" fold="1" page="1" pageScale="1.5" pageWidth="1169" pageHeight="826" background="none" math="0" shadow="0">
      <root>
        <mxCell id="0" style=";html=1;" />
        <mxCell id="1" style=";html=1;" parent="0" />
        <mxCell id="3a17f1ce550125da-1" value="&lt;span style=&quot;font-size: 18px;&quot;&gt;Dummy&lt;/span&gt;" style="whiteSpace=wrap;html=1;shadow=1;fontSize=20;fillColor=#f5f5f5;strokeColor=#666666;strokeWidth=2;dashed=1;" parent="1" vertex="1">
          <mxGeometry x="1030" y="330" width="150" height="60" as="geometry" />
        </mxCell>
        <mxCell id="3a17f1ce550125da-13" style="edgeStyle=elbowEdgeStyle;rounded=0;html=1;startArrow=none;startFill=0;jettySize=auto;orthogonalLoop=1;fontSize=18;elbow=vertical;" parent="1" edge="1">
          <mxGeometry relative="1" as="geometry">
            <mxPoint x="950" y="469.99666666666667" as="sourcePoint" />
            <mxPoint x="1040" y="469.9966666666668" as="targetPoint" />
          </mxGeometry>
        </mxCell>
        <mxCell id="3a17f1ce550125da-2" value="&lt;div&gt;&lt;font style=&quot;font-size: 21px;&quot;&gt;&lt;b&gt;RV32I43O&lt;/b&gt;&lt;/font&gt;&lt;/div&gt;&lt;div&gt;&lt;font style=&quot;font-size: 21px;&quot;&gt;Core Unit&lt;/font&gt;&lt;/div&gt;" style="whiteSpace=wrap;html=1;shadow=1;fontSize=18;fillColor=#f5f5f5;strokeColor=#666666;" parent="1" vertex="1">
          <mxGeometry x="770" y="440" width="180" height="280" as="geometry" />
        </mxCell>
        <mxCell id="3a17f1ce550125da-5" value="Memory&lt;br&gt;Controller" style="whiteSpace=wrap;html=1;shadow=1;fontSize=18;fillColor=#f5f5f5;strokeColor=#666666;" parent="1" vertex="1">
          <mxGeometry x="1320" y="550" width="120" height="60" as="geometry" />
        </mxCell>
        <mxCell id="3a17f1ce550125da-6" value="Dummy" style="whiteSpace=wrap;html=1;shadow=1;fontSize=18;fillColor=#f5f5f5;strokeColor=#666666;" parent="1" vertex="1">
          <mxGeometry x="1320" y="630" width="120" height="60" as="geometry" />
        </mxCell>
        <mxCell id="3a17f1ce550125da-7" value="Dummy" style="whiteSpace=wrap;html=1;shadow=1;fontSize=18;fillColor=#f5f5f5;strokeColor=#666666;" parent="1" vertex="1">
          <mxGeometry x="1320" y="710" width="120" height="60" as="geometry" />
        </mxCell>
        <mxCell id="3a17f1ce550125da-21" style="edgeStyle=elbowEdgeStyle;rounded=0;html=1;startArrow=none;startFill=0;jettySize=auto;orthogonalLoop=1;fontSize=18;elbow=vertical;" parent="1" edge="1">
          <mxGeometry relative="1" as="geometry">
            <mxPoint x="720" y="579.86" as="sourcePoint" />
            <mxPoint x="770" y="579.86" as="targetPoint" />
          </mxGeometry>
        </mxCell>
        <mxCell id="3a17f1ce550125da-10" value="Memory&lt;div&gt;Controller&lt;/div&gt;" style="whiteSpace=wrap;html=1;shadow=1;fontSize=18;fillColor=#f5f5f5;strokeColor=#666666;" parent="1" vertex="1">
          <mxGeometry x="770" y="740" width="200" height="120" as="geometry" />
        </mxCell>
        <mxCell id="0PxaPcuy5lQX8IVzOLOX-10" style="edgeStyle=orthogonalEdgeStyle;rounded=0;orthogonalLoop=1;jettySize=auto;html=1;entryX=0;entryY=0.5;entryDx=0;entryDy=0;" edge="1" parent="1" source="3a17f1ce550125da-11" target="0PxaPcuy5lQX8IVzOLOX-9">
          <mxGeometry relative="1" as="geometry" />
        </mxCell>
        <mxCell id="3a17f1ce550125da-11" value="Clock&lt;div&gt;Generator&lt;/div&gt;" style="whiteSpace=wrap;html=1;shadow=1;fontSize=18;fillColor=#f5f5f5;strokeColor=#666666;" parent="1" vertex="1">
          <mxGeometry x="750" y="340" width="100" height="60" as="geometry" />
        </mxCell>
        <mxCell id="yzXIWAhKr3S2XXen1-xH-7" value="&lt;font&gt;Data&lt;/font&gt;&lt;div&gt;&lt;font&gt;Memory&lt;/font&gt;&lt;/div&gt;" style="whiteSpace=wrap;html=1;shadow=1;fontSize=18;fillColor=#f5f5f5;strokeColor=#666666;" parent="1" vertex="1">
          <mxGeometry x="1040" y="440" width="120" height="160" as="geometry" />
        </mxCell>
        <mxCell id="yzXIWAhKr3S2XXen1-xH-8" value="MemWrite" style="text;html=1;align=left;verticalAlign=middle;whiteSpace=wrap;rounded=0;" parent="1" vertex="1">
          <mxGeometry x="1040" y="460" width="60" height="20" as="geometry" />
        </mxCell>
        <mxCell id="yzXIWAhKr3S2XXen1-xH-9" value="MemRead" style="text;html=1;align=left;verticalAlign=middle;whiteSpace=wrap;rounded=0;" parent="1" vertex="1">
          <mxGeometry x="1040" y="480" width="60" height="20" as="geometry" />
        </mxCell>
        <mxCell id="yzXIWAhKr3S2XXen1-xH-10" value="ByteMask" style="text;html=1;align=left;verticalAlign=middle;whiteSpace=wrap;rounded=0;" parent="1" vertex="1">
          <mxGeometry x="1040" y="540" width="60" height="20" as="geometry" />
        </mxCell>
        <mxCell id="yzXIWAhKr3S2XXen1-xH-11" value="DM_WD" style="text;html=1;align=left;verticalAlign=middle;whiteSpace=wrap;rounded=0;" parent="1" vertex="1">
          <mxGeometry x="1040" y="560" width="60" height="20" as="geometry" />
        </mxCell>
        <mxCell id="yzXIWAhKr3S2XXen1-xH-12" value="DM_addr" style="text;html=1;align=left;verticalAlign=middle;whiteSpace=wrap;rounded=0;" parent="1" vertex="1">
          <mxGeometry x="1040" y="580" width="60" height="20" as="geometry" />
        </mxCell>
        <mxCell id="yzXIWAhKr3S2XXen1-xH-13" style="edgeStyle=elbowEdgeStyle;rounded=0;html=1;startArrow=none;startFill=0;jettySize=auto;orthogonalLoop=1;fontSize=18;elbow=vertical;" parent="1" edge="1">
          <mxGeometry relative="1" as="geometry">
            <mxPoint x="950" y="489.83666666666664" as="sourcePoint" />
            <mxPoint x="1040" y="489.83666666666676" as="targetPoint" />
          </mxGeometry>
        </mxCell>
        <mxCell id="yzXIWAhKr3S2XXen1-xH-14" style="edgeStyle=elbowEdgeStyle;rounded=0;html=1;startArrow=none;startFill=0;jettySize=auto;orthogonalLoop=1;fontSize=18;elbow=vertical;" parent="1" edge="1">
          <mxGeometry relative="1" as="geometry">
            <mxPoint x="950" y="549.8366666666666" as="sourcePoint" />
            <mxPoint x="1040" y="549.8366666666668" as="targetPoint" />
          </mxGeometry>
        </mxCell>
        <mxCell id="yzXIWAhKr3S2XXen1-xH-15" style="edgeStyle=elbowEdgeStyle;rounded=0;html=1;startArrow=none;startFill=0;jettySize=auto;orthogonalLoop=1;fontSize=18;elbow=vertical;" parent="1" edge="1">
          <mxGeometry relative="1" as="geometry">
            <mxPoint x="950" y="569.8366666666666" as="sourcePoint" />
            <mxPoint x="1040" y="569.8366666666668" as="targetPoint" />
          </mxGeometry>
        </mxCell>
        <mxCell id="yzXIWAhKr3S2XXen1-xH-16" style="edgeStyle=elbowEdgeStyle;rounded=0;html=1;startArrow=none;startFill=0;jettySize=auto;orthogonalLoop=1;fontSize=18;elbow=vertical;" parent="1" edge="1">
          <mxGeometry relative="1" as="geometry">
            <mxPoint x="950" y="589.9966666666666" as="sourcePoint" />
            <mxPoint x="1040" y="589.9966666666668" as="targetPoint" />
          </mxGeometry>
        </mxCell>
        <mxCell id="yzXIWAhKr3S2XXen1-xH-20" style="edgeStyle=orthogonalEdgeStyle;rounded=0;orthogonalLoop=1;jettySize=auto;html=1;entryX=1;entryY=0.036;entryDx=0;entryDy=0;entryPerimeter=0;" parent="1" source="yzXIWAhKr3S2XXen1-xH-17" target="3a17f1ce550125da-2" edge="1">
          <mxGeometry relative="1" as="geometry">
            <mxPoint x="950" y="500" as="targetPoint" />
            <Array as="points" />
          </mxGeometry>
        </mxCell>
        <mxCell id="yzXIWAhKr3S2XXen1-xH-17" value="DM_RD" style="text;html=1;align=left;verticalAlign=middle;whiteSpace=wrap;rounded=0;" parent="1" vertex="1">
          <mxGeometry x="1040" y="440" width="50" height="20" as="geometry" />
        </mxCell>
        <mxCell id="yzXIWAhKr3S2XXen1-xH-21" value="DM2RF_RD&lt;div&gt;(BE_L)&lt;/div&gt;" style="text;html=1;align=left;verticalAlign=middle;whiteSpace=wrap;rounded=0;" parent="1" vertex="1">
          <mxGeometry x="880" y="440" width="70" height="30" as="geometry" />
        </mxCell>
        <mxCell id="0PxaPcuy5lQX8IVzOLOX-1" value="" style="group" vertex="1" connectable="0" parent="1">
          <mxGeometry x="600" y="440" width="120" height="90" as="geometry" />
        </mxCell>
        <mxCell id="3a17f1ce550125da-8" value="I. Memory" style="whiteSpace=wrap;html=1;shadow=1;fontSize=18;fillColor=#f5f5f5;strokeColor=#666666;" parent="0PxaPcuy5lQX8IVzOLOX-1" vertex="1">
          <mxGeometry width="120" height="90" as="geometry" />
        </mxCell>
        <mxCell id="yzXIWAhKr3S2XXen1-xH-5" value="IM_RD" style="text;html=1;align=right;verticalAlign=middle;whiteSpace=wrap;rounded=0;" parent="0PxaPcuy5lQX8IVzOLOX-1" vertex="1">
          <mxGeometry y="70" width="40" height="20" as="geometry" />
        </mxCell>
        <mxCell id="0PxaPcuy5lQX8IVzOLOX-26" value="IM_Read" style="text;html=1;align=center;verticalAlign=middle;whiteSpace=wrap;rounded=0;" vertex="1" parent="0PxaPcuy5lQX8IVzOLOX-1">
          <mxGeometry y="20" width="50" height="20" as="geometry" />
        </mxCell>
        <mxCell id="0PxaPcuy5lQX8IVzOLOX-42" value="IM_Addr" style="text;html=1;align=center;verticalAlign=middle;whiteSpace=wrap;rounded=0;" vertex="1" parent="0PxaPcuy5lQX8IVzOLOX-1">
          <mxGeometry width="50" height="20" as="geometry" />
        </mxCell>
        <mxCell id="0PxaPcuy5lQX8IVzOLOX-2" value="" style="group" vertex="1" connectable="0" parent="1">
          <mxGeometry x="600" y="560" width="120" height="140" as="geometry" />
        </mxCell>
        <mxCell id="0PxaPcuy5lQX8IVzOLOX-3" value="I. Cache" style="whiteSpace=wrap;html=1;shadow=1;fontSize=18;fillColor=#f5f5f5;strokeColor=#666666;" vertex="1" parent="0PxaPcuy5lQX8IVzOLOX-2">
          <mxGeometry width="120" height="140" as="geometry" />
        </mxCell>
        <mxCell id="0PxaPcuy5lQX8IVzOLOX-4" value="IC_RD" style="text;html=1;align=right;verticalAlign=middle;whiteSpace=wrap;rounded=0;" vertex="1" parent="0PxaPcuy5lQX8IVzOLOX-2">
          <mxGeometry x="80" y="10" width="40" height="20" as="geometry" />
        </mxCell>
        <mxCell id="0PxaPcuy5lQX8IVzOLOX-5" value="Addr (PC)" style="text;html=1;align=right;verticalAlign=middle;whiteSpace=wrap;rounded=0;" vertex="1" parent="0PxaPcuy5lQX8IVzOLOX-2">
          <mxGeometry x="60" y="120" width="60" height="20" as="geometry" />
        </mxCell>
        <mxCell id="0PxaPcuy5lQX8IVzOLOX-11" value="MemRead" style="text;html=1;align=right;verticalAlign=middle;whiteSpace=wrap;rounded=0;" vertex="1" parent="0PxaPcuy5lQX8IVzOLOX-2">
          <mxGeometry x="60" y="80" width="60" height="20" as="geometry" />
        </mxCell>
        <mxCell id="0PxaPcuy5lQX8IVzOLOX-12" value="MemWrite" style="text;html=1;align=right;verticalAlign=middle;whiteSpace=wrap;rounded=0;imageWidth=20;imageHeight=20;" vertex="1" parent="0PxaPcuy5lQX8IVzOLOX-2">
          <mxGeometry x="60" y="100" width="60" height="20" as="geometry" />
        </mxCell>
        <mxCell id="0PxaPcuy5lQX8IVzOLOX-19" value="I.C_Hit" style="text;html=1;align=right;verticalAlign=middle;whiteSpace=wrap;rounded=0;" vertex="1" parent="0PxaPcuy5lQX8IVzOLOX-2">
          <mxGeometry y="120" width="40" height="20" as="geometry" />
        </mxCell>
        <mxCell id="0PxaPcuy5lQX8IVzOLOX-20" value="I.C_Miss" style="text;html=1;align=left;verticalAlign=middle;whiteSpace=wrap;rounded=0;" vertex="1" parent="0PxaPcuy5lQX8IVzOLOX-2">
          <mxGeometry y="100" width="50" height="20" as="geometry" />
        </mxCell>
        <mxCell id="0PxaPcuy5lQX8IVzOLOX-25" value="IM_Read" style="text;html=1;align=center;verticalAlign=middle;whiteSpace=wrap;rounded=0;" vertex="1" parent="0PxaPcuy5lQX8IVzOLOX-2">
          <mxGeometry y="20" width="50" height="20" as="geometry" />
        </mxCell>
        <mxCell id="0PxaPcuy5lQX8IVzOLOX-7" style="edgeStyle=orthogonalEdgeStyle;rounded=0;orthogonalLoop=1;jettySize=auto;html=1;entryX=0;entryY=0.5;entryDx=0;entryDy=0;exitX=0;exitY=0.5;exitDx=0;exitDy=0;" edge="1" parent="1" source="yzXIWAhKr3S2XXen1-xH-5" target="0PxaPcuy5lQX8IVzOLOX-6">
          <mxGeometry relative="1" as="geometry">
            <Array as="points">
              <mxPoint x="570" y="520" />
              <mxPoint x="570" y="750" />
            </Array>
          </mxGeometry>
        </mxCell>
        <mxCell id="0PxaPcuy5lQX8IVzOLOX-9" value="" style="triangle;whiteSpace=wrap;html=1;rotation=90;" vertex="1" parent="1">
          <mxGeometry x="790" y="430" width="20" height="40" as="geometry" />
        </mxCell>
        <mxCell id="0PxaPcuy5lQX8IVzOLOX-13" style="edgeStyle=orthogonalEdgeStyle;rounded=0;orthogonalLoop=1;jettySize=auto;html=1;entryX=1;entryY=0.5;entryDx=0;entryDy=0;exitX=0;exitY=0.893;exitDx=0;exitDy=0;exitPerimeter=0;" edge="1" parent="1" source="3a17f1ce550125da-2" target="0PxaPcuy5lQX8IVzOLOX-5">
          <mxGeometry relative="1" as="geometry">
            <mxPoint x="760" y="690" as="sourcePoint" />
          </mxGeometry>
        </mxCell>
        <mxCell id="0PxaPcuy5lQX8IVzOLOX-17" value="" style="endArrow=classic;html=1;rounded=0;entryX=1;entryY=0.5;entryDx=0;entryDy=0;exitX=0;exitY=0.75;exitDx=0;exitDy=0;" edge="1" parent="1" source="3a17f1ce550125da-2" target="0PxaPcuy5lQX8IVzOLOX-11">
          <mxGeometry width="50" height="50" relative="1" as="geometry">
            <mxPoint x="730" y="640" as="sourcePoint" />
            <mxPoint x="780" y="590" as="targetPoint" />
          </mxGeometry>
        </mxCell>
        <mxCell id="0PxaPcuy5lQX8IVzOLOX-18" value="" style="endArrow=classic;html=1;rounded=0;entryX=1;entryY=0.5;entryDx=0;entryDy=0;exitX=0;exitY=0.75;exitDx=0;exitDy=0;" edge="1" parent="1">
          <mxGeometry width="50" height="50" relative="1" as="geometry">
            <mxPoint x="770" y="670" as="sourcePoint" />
            <mxPoint x="720" y="670" as="targetPoint" />
          </mxGeometry>
        </mxCell>
        <mxCell id="0PxaPcuy5lQX8IVzOLOX-21" value="I.C_Miss" style="text;html=1;align=center;verticalAlign=middle;whiteSpace=wrap;rounded=0;" vertex="1" parent="1">
          <mxGeometry x="770" y="790" width="50" height="20" as="geometry" />
        </mxCell>
        <mxCell id="0PxaPcuy5lQX8IVzOLOX-22" value="I.C_Hit" style="text;html=1;align=center;verticalAlign=middle;whiteSpace=wrap;rounded=0;" vertex="1" parent="1">
          <mxGeometry x="770" y="770" width="40" height="20" as="geometry" />
        </mxCell>
        <mxCell id="0PxaPcuy5lQX8IVzOLOX-23" style="edgeStyle=orthogonalEdgeStyle;rounded=0;orthogonalLoop=1;jettySize=auto;html=1;entryX=0;entryY=0.5;entryDx=0;entryDy=0;" edge="1" parent="1" source="0PxaPcuy5lQX8IVzOLOX-19" target="0PxaPcuy5lQX8IVzOLOX-22">
          <mxGeometry relative="1" as="geometry">
            <Array as="points">
              <mxPoint x="590" y="690" />
              <mxPoint x="590" y="780" />
            </Array>
          </mxGeometry>
        </mxCell>
        <mxCell id="0PxaPcuy5lQX8IVzOLOX-24" style="edgeStyle=orthogonalEdgeStyle;rounded=0;orthogonalLoop=1;jettySize=auto;html=1;entryX=0;entryY=0.5;entryDx=0;entryDy=0;" edge="1" parent="1" source="0PxaPcuy5lQX8IVzOLOX-20" target="0PxaPcuy5lQX8IVzOLOX-21">
          <mxGeometry relative="1" as="geometry">
            <Array as="points">
              <mxPoint x="580" y="670" />
              <mxPoint x="580" y="800" />
            </Array>
          </mxGeometry>
        </mxCell>
        <mxCell id="0PxaPcuy5lQX8IVzOLOX-29" value="IC_RD&lt;div&gt;(ID)&lt;/div&gt;" style="text;html=1;align=left;verticalAlign=middle;whiteSpace=wrap;rounded=0;" vertex="1" parent="1">
          <mxGeometry x="770" y="570" width="40" height="20" as="geometry" />
        </mxCell>
        <mxCell id="0PxaPcuy5lQX8IVzOLOX-31" value="Addr (PC)" style="text;html=1;align=left;verticalAlign=middle;whiteSpace=wrap;rounded=0;" vertex="1" parent="1">
          <mxGeometry x="770" y="810" width="60" height="20" as="geometry" />
        </mxCell>
        <mxCell id="0PxaPcuy5lQX8IVzOLOX-32" style="edgeStyle=orthogonalEdgeStyle;rounded=0;orthogonalLoop=1;jettySize=auto;html=1;entryX=0;entryY=0.5;entryDx=0;entryDy=0;" edge="1" parent="1" source="0PxaPcuy5lQX8IVzOLOX-5" target="0PxaPcuy5lQX8IVzOLOX-31">
          <mxGeometry relative="1" as="geometry">
            <Array as="points">
              <mxPoint x="690" y="820" />
            </Array>
          </mxGeometry>
        </mxCell>
        <mxCell id="0PxaPcuy5lQX8IVzOLOX-36" style="edgeStyle=orthogonalEdgeStyle;rounded=0;orthogonalLoop=1;jettySize=auto;html=1;entryX=0;entryY=0.5;entryDx=0;entryDy=0;exitX=1;exitY=0.5;exitDx=0;exitDy=0;" edge="1" parent="1" source="0PxaPcuy5lQX8IVzOLOX-34" target="0PxaPcuy5lQX8IVzOLOX-26">
          <mxGeometry relative="1" as="geometry">
            <Array as="points">
              <mxPoint x="980" y="770" />
              <mxPoint x="980" y="880" />
              <mxPoint x="550" y="880" />
              <mxPoint x="550" y="470" />
            </Array>
          </mxGeometry>
        </mxCell>
        <mxCell id="0PxaPcuy5lQX8IVzOLOX-34" value="IM_Read" style="text;html=1;align=center;verticalAlign=middle;whiteSpace=wrap;rounded=0;" vertex="1" parent="1">
          <mxGeometry x="920" y="760" width="50" height="20" as="geometry" />
        </mxCell>
        <mxCell id="0PxaPcuy5lQX8IVzOLOX-43" style="edgeStyle=orthogonalEdgeStyle;rounded=0;orthogonalLoop=1;jettySize=auto;html=1;entryX=0;entryY=0.5;entryDx=0;entryDy=0;exitX=1;exitY=0.5;exitDx=0;exitDy=0;" edge="1" parent="1" source="0PxaPcuy5lQX8IVzOLOX-35" target="0PxaPcuy5lQX8IVzOLOX-42">
          <mxGeometry relative="1" as="geometry">
            <Array as="points">
              <mxPoint x="990" y="750" />
              <mxPoint x="990" y="890" />
              <mxPoint x="540" y="890" />
              <mxPoint x="540" y="450" />
            </Array>
          </mxGeometry>
        </mxCell>
        <mxCell id="0PxaPcuy5lQX8IVzOLOX-35" value="IM_Addr" style="text;html=1;align=center;verticalAlign=middle;whiteSpace=wrap;rounded=0;" vertex="1" parent="1">
          <mxGeometry x="920" y="740" width="50" height="20" as="geometry" />
        </mxCell>
        <mxCell id="0PxaPcuy5lQX8IVzOLOX-45" style="edgeStyle=orthogonalEdgeStyle;rounded=0;orthogonalLoop=1;jettySize=auto;html=1;entryX=0.5;entryY=1;entryDx=0;entryDy=0;" edge="1" parent="1" source="0PxaPcuy5lQX8IVzOLOX-6" target="0PxaPcuy5lQX8IVzOLOX-46">
          <mxGeometry relative="1" as="geometry">
            <mxPoint x="790" y="720" as="targetPoint" />
            <Array as="points">
              <mxPoint x="800" y="730" />
              <mxPoint x="800" y="730" />
            </Array>
          </mxGeometry>
        </mxCell>
        <mxCell id="0PxaPcuy5lQX8IVzOLOX-6" value="IM_RD" style="text;html=1;align=right;verticalAlign=middle;whiteSpace=wrap;rounded=0;" vertex="1" parent="1">
          <mxGeometry x="770" y="740" width="40" height="20" as="geometry" />
        </mxCell>
        <mxCell id="0PxaPcuy5lQX8IVzOLOX-46" value="IM_RD(ID)" style="text;html=1;align=right;verticalAlign=middle;whiteSpace=wrap;rounded=0;" vertex="1" parent="1">
          <mxGeometry x="770" y="700" width="60" height="20" as="geometry" />
        </mxCell>
      </root>
    </mxGraphModel>
  </diagram>
</mxfile>
